# xmcd CD database file
#
# Track frame offsets:
#	150
#	17110
#	33129
#	46964
#	65125
#	83526
#	99927
#	115148
#	131048
#	145851
#	160280
#	176036
#	190829
#	204859
#
# Disc length: 2899 seconds
#
# Revision: 2
# Processed by: cddbd v1.5.1PL0 Copyright (c) Steve Scherf et al.
# Submitted via: CDex 1.51
#
DISCID=b60b510e
DTITLE=Jack Fred With Band - SAXOFON
DYEAR=2004
DGENRE=Jazz
TTITLE0=Another Day in Paradise
TTITLE1=Let it Be
TTITLE2=In Latino Mood
TTITLE3=Love Story
TTITLE4=Present for You
TTITLE5=Souvenirs, Souvenirs
TTITLE6=Dance through the Night
TTITLE7=Feelings
TTITLE8=Last Tango
TTITLE9=Mountain Ballade
TTITLE10=Without You
TTITLE11=Village Song
TTITLE12=Talk with the Trees
TTITLE13=Mocca
EXTD=YEAR: 2004
EXTT0=
EXTT1=
EXTT2=
EXTT3=
EXTT4=
EXTT5=
EXTT6=
EXTT7=
EXTT8=
EXTT9=
EXTT10=
EXTT11=
EXTT12=
EXTT13=
PLAYORDER=
